<mxfile modified="2020-10-09T08:17:29.295Z" host="app.diagrams.net" agent="5.0 (Macintosh; Intel Mac OS X 11_0) AppleWebKit/605.1.15 (KHTML, like Gecko) Version/14.0.1 Safari/605.1.15" etag="q8HkDjzmwa0FGnzbJjDR" version="13.7.9" type="github">
  <diagram id="WI9T0HZ2pTsCkuznbFz-" name="Page-1">
    <mxGraphModel dx="1426" dy="825" grid="1" gridSize="10" guides="1" tooltips="1" connect="1" arrows="1" fold="1" page="1" pageScale="1" pageWidth="827" pageHeight="1169" math="0" shadow="0">
      <root>
        <mxCell id="0" />
        <mxCell id="1" parent="0" />
        <mxCell id="yIlqXNv4PA9Dnh1hxRCn-51" value="" style="rounded=0;whiteSpace=wrap;html=1;fillColor=#f5f5f5;strokeColor=none;fontColor=#333333;" parent="1" vertex="1">
          <mxGeometry x="151.5" y="764.5" width="110" height="120" as="geometry" />
        </mxCell>
        <mxCell id="yIlqXNv4PA9Dnh1hxRCn-74" value="" style="rounded=0;whiteSpace=wrap;html=1;fillColor=#EAEDED;fontSize=22;fontColor=#FFFFFF;strokeColor=none;labelBackgroundColor=none;" parent="1" vertex="1">
          <mxGeometry x="715.75" y="188.25" width="539" height="283.5" as="geometry" />
        </mxCell>
        <mxCell id="yIlqXNv4PA9Dnh1hxRCn-75" value="&lt;span&gt;Api Management&lt;/span&gt;" style="text;html=1;align=left;verticalAlign=top;spacingTop=-4;fontSize=14;labelBackgroundColor=none;whiteSpace=wrap;" parent="1" vertex="1">
          <mxGeometry x="785.75" y="206.75" width="449" height="22.5" as="geometry" />
        </mxCell>
        <mxCell id="yIlqXNv4PA9Dnh1hxRCn-82" value="1" style="ellipse;whiteSpace=wrap;html=1;aspect=fixed;fillColor=#4D9900;strokeColor=none;labelBackgroundColor=none;" parent="1" vertex="1">
          <mxGeometry x="735.75" y="205.75" width="23" height="23" as="geometry" />
        </mxCell>
        <mxCell id="yIlqXNv4PA9Dnh1hxRCn-95" value="&lt;span&gt;Identity Server 4 - Users will SignIn or SignUp&lt;/span&gt;" style="text;html=1;align=left;verticalAlign=top;spacingTop=-4;fontSize=14;labelBackgroundColor=none;whiteSpace=wrap;" parent="1" vertex="1">
          <mxGeometry x="785.75" y="278.75" width="449" height="32" as="geometry" />
        </mxCell>
        <mxCell id="yIlqXNv4PA9Dnh1hxRCn-96" value="2" style="ellipse;whiteSpace=wrap;html=1;aspect=fixed;fillColor=#4D9900;strokeColor=none;labelBackgroundColor=none;" parent="1" vertex="1">
          <mxGeometry x="735.75" y="276.25" width="23" height="23" as="geometry" />
        </mxCell>
        <mxCell id="yIlqXNv4PA9Dnh1hxRCn-97" value="&lt;span&gt;Event Bus - Rabbit MQ (Integration with Identity Server 4 and Customer API&lt;/span&gt;" style="text;html=1;align=left;verticalAlign=top;spacingTop=-4;fontSize=14;labelBackgroundColor=none;whiteSpace=wrap;" parent="1" vertex="1">
          <mxGeometry x="785.75" y="418.25" width="448.5" height="20" as="geometry" />
        </mxCell>
        <mxCell id="yIlqXNv4PA9Dnh1hxRCn-98" value="3" style="ellipse;whiteSpace=wrap;html=1;aspect=fixed;fillColor=#4D9900;strokeColor=none;labelBackgroundColor=none;" parent="1" vertex="1">
          <mxGeometry x="735.75" y="348.25" width="23" height="23" as="geometry" />
        </mxCell>
        <mxCell id="yIlqXNv4PA9Dnh1hxRCn-100" value="4" style="ellipse;whiteSpace=wrap;html=1;aspect=fixed;fillColor=#4D9900;strokeColor=none;labelBackgroundColor=none;" parent="1" vertex="1">
          <mxGeometry x="735.75" y="418.25" width="23" height="23" as="geometry" />
        </mxCell>
        <mxCell id="RiDxalOBKO4JJ4kLQbMD-4" style="edgeStyle=orthogonalEdgeStyle;rounded=0;orthogonalLoop=1;jettySize=auto;html=1;entryX=0.5;entryY=0;entryDx=0;entryDy=0;" edge="1" parent="1" source="RiDxalOBKO4JJ4kLQbMD-1" target="RiDxalOBKO4JJ4kLQbMD-6">
          <mxGeometry relative="1" as="geometry">
            <mxPoint x="286.01" y="291.02" as="targetPoint" />
          </mxGeometry>
        </mxCell>
        <mxCell id="RiDxalOBKO4JJ4kLQbMD-1" value="" style="html=1;verticalLabelPosition=bottom;align=center;labelBackgroundColor=#ffffff;verticalAlign=top;strokeWidth=2;strokeColor=#0080F0;shadow=0;dashed=0;shape=mxgraph.ios7.icons.smartphone;" vertex="1" parent="1">
          <mxGeometry x="92" y="207.5" width="18" height="30" as="geometry" />
        </mxCell>
        <mxCell id="RiDxalOBKO4JJ4kLQbMD-5" style="edgeStyle=orthogonalEdgeStyle;rounded=0;orthogonalLoop=1;jettySize=auto;html=1;entryX=0.5;entryY=1;entryDx=0;entryDy=0;" edge="1" parent="1" source="RiDxalOBKO4JJ4kLQbMD-2" target="RiDxalOBKO4JJ4kLQbMD-6">
          <mxGeometry relative="1" as="geometry">
            <mxPoint x="288.0250000000001" y="348.98" as="targetPoint" />
          </mxGeometry>
        </mxCell>
        <mxCell id="RiDxalOBKO4JJ4kLQbMD-2" value="" style="verticalLabelPosition=bottom;html=1;verticalAlign=top;align=center;strokeColor=none;fillColor=#00BEF2;shape=mxgraph.azure.azure_website;pointerEvents=1;" vertex="1" parent="1">
          <mxGeometry x="80" y="413" width="50" height="50" as="geometry" />
        </mxCell>
        <mxCell id="RiDxalOBKO4JJ4kLQbMD-6" value="" style="rounded=0;whiteSpace=wrap;html=1;fillColor=#f5f5f5;strokeColor=none;fontColor=#333333;" vertex="1" parent="1">
          <mxGeometry x="214" y="284.5" width="110" height="120" as="geometry" />
        </mxCell>
        <mxCell id="RiDxalOBKO4JJ4kLQbMD-7" value="" style="aspect=fixed;html=1;points=[];align=center;image;fontSize=12;image=img/lib/azure2/app_services/API_Management_Services.svg;" vertex="1" parent="1">
          <mxGeometry x="231.5" y="314.5" width="65" height="60" as="geometry" />
        </mxCell>
        <mxCell id="RiDxalOBKO4JJ4kLQbMD-8" value="1" style="ellipse;whiteSpace=wrap;html=1;aspect=fixed;fillColor=#4D9900;strokeColor=none;labelBackgroundColor=none;" vertex="1" parent="1">
          <mxGeometry x="220" y="291.5" width="23" height="23" as="geometry" />
        </mxCell>
        <mxCell id="RiDxalOBKO4JJ4kLQbMD-9" value="" style="rounded=0;whiteSpace=wrap;html=1;fillColor=#f5f5f5;strokeColor=none;fontColor=#333333;" vertex="1" parent="1">
          <mxGeometry x="401.5" y="170" width="110" height="320" as="geometry" />
        </mxCell>
        <mxCell id="RiDxalOBKO4JJ4kLQbMD-13" value="2" style="ellipse;whiteSpace=wrap;html=1;aspect=fixed;fillColor=#4D9900;strokeColor=none;labelBackgroundColor=none;" vertex="1" parent="1">
          <mxGeometry x="475" y="370" width="23" height="23" as="geometry" />
        </mxCell>
        <mxCell id="RiDxalOBKO4JJ4kLQbMD-16" value="3" style="ellipse;whiteSpace=wrap;html=1;aspect=fixed;fillColor=#4D9900;strokeColor=none;labelBackgroundColor=none;" vertex="1" parent="1">
          <mxGeometry x="414" y="177" width="23" height="23" as="geometry" />
        </mxCell>
        <mxCell id="RiDxalOBKO4JJ4kLQbMD-17" value="&lt;span&gt;Customer API&lt;/span&gt;" style="text;html=1;align=left;verticalAlign=top;spacingTop=-4;fontSize=14;labelBackgroundColor=none;whiteSpace=wrap;" vertex="1" parent="1">
          <mxGeometry x="785.75" y="351.25" width="138.5" height="20" as="geometry" />
        </mxCell>
        <mxCell id="RiDxalOBKO4JJ4kLQbMD-29" style="edgeStyle=orthogonalEdgeStyle;rounded=0;orthogonalLoop=1;jettySize=auto;html=1;entryX=0;entryY=0;entryDx=0;entryDy=67.5;entryPerimeter=0;fontFamily=Tahoma;fontSize=22;fontColor=#FFFFFF;" edge="1" parent="1" source="RiDxalOBKO4JJ4kLQbMD-18" target="RiDxalOBKO4JJ4kLQbMD-24">
          <mxGeometry relative="1" as="geometry" />
        </mxCell>
        <mxCell id="RiDxalOBKO4JJ4kLQbMD-18" value="" style="verticalLabelPosition=bottom;html=1;verticalAlign=top;align=center;strokeColor=none;fillColor=#00BEF2;shape=mxgraph.azure.cloud_service;" vertex="1" parent="1">
          <mxGeometry x="410" y="202.5" width="80" height="67.5" as="geometry" />
        </mxCell>
        <mxCell id="RiDxalOBKO4JJ4kLQbMD-27" style="edgeStyle=orthogonalEdgeStyle;rounded=0;orthogonalLoop=1;jettySize=auto;html=1;entryX=0;entryY=0;entryDx=0;entryDy=172.5;entryPerimeter=0;fontFamily=Tahoma;fontSize=22;fontColor=#FFFFFF;" edge="1" parent="1" source="RiDxalOBKO4JJ4kLQbMD-22" target="RiDxalOBKO4JJ4kLQbMD-24">
          <mxGeometry relative="1" as="geometry" />
        </mxCell>
        <mxCell id="RiDxalOBKO4JJ4kLQbMD-22" value="" style="verticalLabelPosition=bottom;html=1;verticalAlign=top;align=center;strokeColor=none;fillColor=#00BEF2;shape=mxgraph.azure.user;" vertex="1" parent="1">
          <mxGeometry x="427" y="397" width="53" height="53" as="geometry" />
        </mxCell>
        <mxCell id="RiDxalOBKO4JJ4kLQbMD-24" value="" style="shape=cylinder3;whiteSpace=wrap;html=1;boundedLbl=1;backgroundOutline=1;size=15;fillColor=#02C0F0;strokeColor=none;" vertex="1" parent="1">
          <mxGeometry x="590" y="200" width="60" height="240" as="geometry" />
        </mxCell>
        <mxCell id="RiDxalOBKO4JJ4kLQbMD-26" value="Event Bus&lt;br style=&quot;font-size: 22px&quot;&gt;RabbitMQ" style="text;html=1;align=center;verticalAlign=middle;whiteSpace=wrap;rounded=0;rotation=90;fontColor=#FFFFFF;fontSize=22;fontFamily=Tahoma;" vertex="1" parent="1">
          <mxGeometry x="532.75" y="300.25" width="183" height="35.5" as="geometry" />
        </mxCell>
        <mxCell id="RiDxalOBKO4JJ4kLQbMD-30" value="4" style="ellipse;whiteSpace=wrap;html=1;aspect=fixed;fillColor=#4D9900;strokeColor=none;labelBackgroundColor=none;" vertex="1" parent="1">
          <mxGeometry x="650" y="184.5" width="23" height="23" as="geometry" />
        </mxCell>
      </root>
    </mxGraphModel>
  </diagram>
</mxfile>
